<?xml version="1.0" encoding="UTF-8" standalone="no"?>
<!DOCTYPE svg PUBLIC "-//W3C//DTD SVG 1.1//EN" "http://www.w3.org/Graphics/SVG/1.1/DTD/svg11.dtd">
<svg width="100%" height="100%" viewBox="0 0 946 294" version="1.1" xmlns="http://www.w3.org/2000/svg" xmlns:xlink="http://www.w3.org/1999/xlink" xml:space="preserve" xmlns:serif="http://www.serif.com/" style="fill-rule:evenodd;clip-rule:evenodd;stroke-linejoin:round;stroke-miterlimit:2;">
    <g transform="matrix(1,0,0,1,-5506.16,-3787.56)">
        <g transform="matrix(0.604739,0,0,0.492346,4940.91,3375.41)">
            <g transform="matrix(1.3186,0,0,1.61961,261.901,336.694)">
                <text x="888.292px" y="557.829px" style="font-family:'Lato-Bold', 'Lato', sans-serif;font-weight:700;font-size:198.56px;fill:rgb(30,32,34);">D<tspan x="1038.01px " y="557.829px ">o</tspan>lphino</text>
            </g>
        </g>
        <g transform="matrix(0.604739,0,0,0.492346,4940.91,3375.41)">
            <g transform="matrix(1,0,0,1,-495.319,-590.201)">
                <g transform="matrix(6.99311e-17,1.40277,-1.14206,8.5895e-17,1969.65,1234.61)">
                    <path d="M356.066,472.502L196.204,472.502C175.235,471.1 156.344,459.35 145.817,441.162C135.427,423.158 134.575,401.189 143.536,382.435L143.536,382.427L297.996,114.887C309.758,97.746 329.211,87.5 350,87.5L350.006,87.503C371.022,87.523 390.643,98.011 402.342,115.468L556.472,382.428C565.441,401.185 564.586,423.158 554.195,441.162C543.667,459.35 524.773,471.103 503.804,472.502L457.785,472.502C435.228,438.783 416.259,390.82 412.053,345.817C436.151,346.876 464.838,360.352 464.838,360.352C456.341,334.975 426.209,317.727 402.826,307.795L402.827,307.795C385.909,229.111 383.941,162.582 374.126,159.966C356.059,155.165 331.667,203.089 331.667,203.089C331.667,203.089 262.791,204.311 277.062,303.829C278.482,313.761 283.589,340.649 286.418,349.933C271.424,373.289 251.663,415.252 265.102,460.409C265.102,460.409 280.443,420.098 314.859,408.493C324.874,433.748 339.228,455.159 356.066,472.502Z" style="fill:rgb(31,90,220);"/>
                </g>
                <g transform="matrix(6.99311e-17,1.40277,-1.14206,8.5895e-17,1969.65,1234.61)">
                    <path d="M410.866,301.252C408.957,291.964 407.24,282.948 405.671,274.145C421.897,283.234 438.939,298.592 449.333,324.464C437.572,314.642 423.604,306.964 410.866,301.252Z" style="fill:rgb(31,90,220);"/>
                </g>
                <g transform="matrix(6.99311e-17,1.40277,-1.14206,8.5895e-17,1969.65,1234.61)">
                    <path d="M310.376,237.922C309.894,242.989 313.618,247.508 318.702,247.992C323.776,248.475 328.29,244.74 328.772,239.673C329.256,234.589 325.53,230.087 320.453,229.603C315.369,229.123 310.86,232.838 310.376,237.922Z" style="fill:rgb(31,90,220);"/>
                </g>
                <g transform="matrix(-1.01672,-0.118894,-0.0967973,1.24881,1937.83,1521.61)">
                    <path d="M282.475,258.597C272.338,255.488 262.483,252.62 252.85,249.941C261.248,268.967 276.538,289.565 304.237,303.878C294.55,289.745 287.483,273.382 282.475,258.597Z" style="fill:white;"/>
                </g>
            </g>
        </g>
    </g>
</svg>
