<?xml version="1.0" encoding="UTF-8" standalone="no"?>
<!DOCTYPE svg PUBLIC "-//W3C//DTD SVG 1.1//EN" "http://www.w3.org/Graphics/SVG/1.1/DTD/svg11.dtd">
<svg width="100%" height="100%" viewBox="0 0 946 294" version="1.1" xmlns="http://www.w3.org/2000/svg" xmlns:xlink="http://www.w3.org/1999/xlink" xml:space="preserve" xmlns:serif="http://www.serif.com/" style="fill-rule:evenodd;clip-rule:evenodd;stroke-linejoin:round;stroke-miterlimit:2;">
    <g transform="matrix(1,0,0,1,-5504.03,-4017.39)">
        <g transform="matrix(0.604739,0,0,0.492346,4940.91,3375.41)">
            <g transform="matrix(1.3186,0,0,1.61961,258.382,803.499)">
                <path d="M1031.75,486.049C1031.75,496.573 1030,506.236 1026.49,515.039C1022.98,523.842 1018.05,531.42 1011.7,537.774C1005.34,544.128 997.699,549.059 988.764,552.567C979.828,556.075 969.9,557.829 958.98,557.829L904.276,557.829L904.276,414.27L958.98,414.27C969.9,414.27 979.828,416.04 988.764,419.581C997.699,423.122 1005.34,428.053 1011.7,434.374C1018.05,440.695 1022.98,448.257 1026.49,457.059C1030,465.862 1031.75,475.525 1031.75,486.049ZM1004.35,486.049C1004.35,478.173 1003.31,471.108 1001.22,464.853C999.138,458.598 996.127,453.303 992.189,448.968C988.251,444.633 983.485,441.307 977.892,438.99C972.3,436.674 965.995,435.516 958.98,435.516L931.082,435.516L931.082,536.583L958.98,536.583C965.995,536.583 972.3,535.424 977.892,533.108C983.485,530.791 988.251,527.465 992.189,523.13C996.127,518.795 999.138,513.5 1001.22,507.245C1003.31,500.991 1004.35,493.925 1004.35,486.049Z" style="fill:rgb(30,32,34);fill-rule:nonzero;"/>
                <path d="M1095.19,454.379C1102.74,454.379 1109.6,455.603 1115.79,458.052C1121.98,460.501 1127.28,463.976 1131.68,468.477C1136.08,472.977 1139.47,478.471 1141.85,484.957C1144.24,491.443 1145.43,498.691 1145.43,506.699C1145.43,514.774 1144.24,522.055 1141.85,528.541C1139.47,535.027 1136.08,540.554 1131.68,545.121C1127.28,549.688 1121.98,553.195 1115.79,555.644C1109.6,558.093 1102.74,559.318 1095.19,559.318C1087.58,559.318 1080.66,558.093 1074.44,555.644C1068.22,553.195 1062.91,549.688 1058.51,545.121C1054.11,540.554 1050.7,535.027 1048.28,528.541C1045.87,522.055 1044.66,514.774 1044.66,506.699C1044.66,498.691 1045.87,491.443 1048.28,484.957C1050.7,478.471 1054.11,472.977 1058.51,468.477C1062.91,463.976 1068.22,460.501 1074.44,458.052C1080.66,455.603 1087.58,454.379 1095.19,454.379ZM1095.19,540.455C1103.66,540.455 1109.93,537.609 1114.01,531.916C1118.08,526.224 1120.11,517.885 1120.11,506.898C1120.11,495.911 1118.08,487.538 1114.01,481.78C1109.93,476.022 1103.66,473.143 1095.19,473.143C1086.59,473.143 1080.22,476.038 1076.08,481.83C1071.94,487.621 1069.88,495.977 1069.88,506.898C1069.88,517.819 1071.94,526.142 1076.08,531.867C1080.22,537.592 1086.59,540.455 1095.19,540.455Z" style="fill:rgb(30,32,34);fill-rule:nonzero;"/>
                <rect x="1164.49" y="410.299" width="24.522" height="147.53" style="fill:rgb(30,32,34);fill-rule:nonzero;"/>
                <path d="M1238.06,531.42C1240.84,534.796 1243.86,537.178 1247.14,538.568C1250.42,539.958 1253.97,540.653 1257.81,540.653C1261.52,540.653 1264.86,539.958 1267.84,538.568C1270.82,537.178 1273.35,535.06 1275.43,532.214C1277.52,529.368 1279.12,525.778 1280.25,521.442C1281.38,517.107 1281.94,511.994 1281.94,506.104C1281.94,500.147 1281.46,495.1 1280.5,490.963C1279.54,486.827 1278.16,483.468 1276.38,480.887C1274.59,478.305 1272.42,476.419 1269.88,475.228C1267.33,474.036 1264.43,473.441 1261.19,473.441C1256.09,473.441 1251.76,474.516 1248.18,476.667C1244.61,478.818 1241.23,481.846 1238.06,485.751L1238.06,531.42ZM1236.77,469.867C1240.93,465.167 1245.67,461.362 1250.96,458.449C1256.26,455.537 1262.48,454.081 1269.63,454.081C1275.19,454.081 1280.27,455.239 1284.87,457.556C1289.47,459.872 1293.44,463.231 1296.78,467.633C1300.12,472.034 1302.7,477.461 1304.52,483.915C1306.34,490.368 1307.25,497.764 1307.25,506.104C1307.25,513.715 1306.23,520.764 1304.18,527.25C1302.12,533.737 1299.19,539.362 1295.39,544.128C1291.58,548.893 1286.98,552.616 1281.59,555.297C1276.2,557.977 1270.16,559.318 1263.47,559.318C1257.78,559.318 1252.91,558.441 1248.88,556.687C1244.84,554.933 1241.23,552.501 1238.06,549.39L1238.06,591.087L1213.53,591.087L1213.53,455.967L1228.53,455.967C1231.7,455.967 1233.79,457.457 1234.78,460.435L1236.77,469.867Z" style="fill:rgb(30,32,34);fill-rule:nonzero;"/>
                <path d="M1350.84,466.888C1354.81,463.182 1359.18,460.17 1363.94,457.854C1368.71,455.537 1374.3,454.379 1380.72,454.379C1386.28,454.379 1391.21,455.322 1395.51,457.208C1399.82,459.095 1403.41,461.742 1406.29,465.151C1409.16,468.559 1411.35,472.63 1412.84,477.362C1414.33,482.094 1415.07,487.307 1415.07,492.999L1415.07,557.829L1390.55,557.829L1390.55,492.999C1390.55,486.777 1389.13,481.962 1386.28,478.553C1383.43,475.145 1379.1,473.441 1373.28,473.441C1369.04,473.441 1365.07,474.4 1361.36,476.32C1357.65,478.239 1354.15,480.853 1350.84,484.163L1350.84,557.829L1326.32,557.829L1326.32,410.299L1350.84,410.299L1350.84,466.888Z" style="fill:rgb(30,32,34);fill-rule:nonzero;"/>
                <path d="M1463.72,455.967L1463.72,557.829L1439.1,557.829L1439.1,455.967L1463.72,455.967ZM1467.09,426.283C1467.09,428.401 1466.66,430.386 1465.8,432.239C1464.94,434.093 1463.8,435.714 1462.38,437.104C1460.96,438.494 1459.28,439.603 1457.37,440.43C1455.45,441.257 1453.39,441.671 1451.21,441.671C1449.09,441.671 1447.09,441.257 1445.2,440.43C1443.32,439.603 1441.68,438.494 1440.29,437.104C1438.9,435.714 1437.79,434.093 1436.96,432.239C1436.14,430.386 1435.72,428.401 1435.72,426.283C1435.72,424.098 1436.14,422.047 1436.96,420.127C1437.79,418.208 1438.9,416.553 1440.29,415.163C1441.68,413.773 1443.32,412.665 1445.2,411.837C1447.09,411.01 1449.09,410.596 1451.21,410.596C1453.39,410.596 1455.45,411.01 1457.37,411.837C1459.28,412.665 1460.96,413.773 1462.38,415.163C1463.8,416.553 1464.94,418.208 1465.8,420.127C1466.66,422.047 1467.09,424.098 1467.09,426.283Z" style="fill:rgb(30,32,34);fill-rule:nonzero;"/>
                <path d="M1511.67,468.477C1513.72,466.425 1515.89,464.522 1518.17,462.768C1520.46,461.014 1522.87,459.525 1525.42,458.3C1527.97,457.076 1530.7,456.116 1533.61,455.421C1536.52,454.726 1539.7,454.379 1543.14,454.379C1548.7,454.379 1553.63,455.322 1557.94,457.208C1562.24,459.095 1565.83,461.742 1568.71,465.151C1571.59,468.559 1573.77,472.63 1575.26,477.362C1576.75,482.094 1577.49,487.307 1577.49,492.999L1577.49,557.829L1552.97,557.829L1552.97,492.999C1552.97,486.777 1551.55,481.962 1548.7,478.553C1545.86,475.145 1541.52,473.441 1535.7,473.441C1531.46,473.441 1527.49,474.4 1523.78,476.32C1520.08,478.239 1516.57,480.853 1513.26,484.163L1513.26,557.829L1488.74,557.829L1488.74,455.967L1503.73,455.967C1506.91,455.967 1508.99,457.457 1509.98,460.435L1511.67,468.477Z" style="fill:rgb(30,32,34);fill-rule:nonzero;"/>
                <path d="M1645.8,454.379C1653.34,454.379 1660.21,455.603 1666.4,458.052C1672.59,460.501 1677.88,463.976 1682.28,468.477C1686.68,472.977 1690.08,478.471 1692.46,484.957C1694.84,491.443 1696.03,498.691 1696.03,506.699C1696.03,514.774 1694.84,522.055 1692.46,528.541C1690.08,535.027 1686.68,540.554 1682.28,545.121C1677.88,549.688 1672.59,553.195 1666.4,555.644C1660.21,558.093 1653.34,559.318 1645.8,559.318C1638.19,559.318 1631.27,558.093 1625.05,555.644C1618.83,553.195 1613.52,549.688 1609.11,545.121C1604.71,540.554 1601.3,535.027 1598.89,528.541C1596.47,522.055 1595.27,514.774 1595.27,506.699C1595.27,498.691 1596.47,491.443 1598.89,484.957C1601.3,478.471 1604.71,472.977 1609.11,468.477C1613.52,463.976 1618.83,460.501 1625.05,458.052C1631.27,455.603 1638.19,454.379 1645.8,454.379ZM1645.8,540.455C1654.27,540.455 1660.54,537.609 1664.61,531.916C1668.68,526.224 1670.72,517.885 1670.72,506.898C1670.72,495.911 1668.68,487.538 1664.61,481.78C1660.54,476.022 1654.27,473.143 1645.8,473.143C1637.19,473.143 1630.82,476.038 1626.69,481.83C1622.55,487.621 1620.48,495.977 1620.48,506.898C1620.48,517.819 1622.55,526.142 1626.69,531.867C1630.82,537.592 1637.19,540.455 1645.8,540.455Z" style="fill:rgb(30,32,34);fill-rule:nonzero;"/>
            </g>
        </g>
        <g transform="matrix(0.604739,0,0,0.492346,4940.91,3375.41)">
            <g transform="matrix(1,0,0,1,-498.838,-123.396)">
                <g transform="matrix(6.99311e-17,1.40277,-1.14206,8.5895e-17,1969.65,1234.61)">
                    <path d="M356.066,472.502L196.204,472.502C175.235,471.1 156.344,459.35 145.817,441.162C135.427,423.158 134.575,401.189 143.536,382.435L143.536,382.427L297.996,114.887C309.758,97.746 329.211,87.5 350,87.5L350.006,87.503C371.022,87.523 390.643,98.011 402.342,115.468L556.472,382.428C565.441,401.185 564.586,423.158 554.195,441.162C543.667,459.35 524.773,471.103 503.804,472.502L457.785,472.502C435.228,438.783 416.259,390.82 412.053,345.817C436.151,346.876 464.838,360.352 464.838,360.352C456.341,334.975 426.209,317.727 402.826,307.795L402.827,307.795C385.909,229.111 383.941,162.582 374.126,159.966C356.059,155.165 331.667,203.089 331.667,203.089C331.667,203.089 262.791,204.311 277.062,303.829C278.482,313.761 283.589,340.649 286.418,349.933C271.424,373.289 251.663,415.252 265.102,460.409C265.102,460.409 280.443,420.098 314.859,408.493C324.874,433.748 339.228,455.159 356.066,472.502Z" style="fill:rgb(31,90,220);"/>
                </g>
                <g transform="matrix(6.99311e-17,1.40277,-1.14206,8.5895e-17,1969.65,1234.61)">
                    <path d="M410.866,301.252C408.957,291.964 407.24,282.948 405.671,274.145C421.897,283.234 438.939,298.592 449.333,324.464C437.572,314.642 423.604,306.964 410.866,301.252Z" style="fill:rgb(31,90,220);"/>
                </g>
                <g transform="matrix(6.99311e-17,1.40277,-1.14206,8.5895e-17,1969.65,1234.61)">
                    <path d="M310.376,237.922C309.894,242.989 313.618,247.508 318.702,247.992C323.776,248.475 328.29,244.74 328.772,239.673C329.256,234.589 325.53,230.087 320.453,229.603C315.369,229.123 310.86,232.838 310.376,237.922Z" style="fill:rgb(31,90,220);"/>
                </g>
                <g transform="matrix(-1.01672,-0.118894,-0.0967973,1.24881,1937.83,1521.61)">
                    <path d="M282.475,258.597C272.338,255.488 262.483,252.62 252.85,249.941C261.248,268.967 276.538,289.565 304.237,303.878C294.55,289.745 287.483,273.382 282.475,258.597Z" style="fill:white;"/>
                </g>
            </g>
        </g>
    </g>
</svg>
