<?xml version="1.0" encoding="UTF-8" standalone="no"?>
<!DOCTYPE svg PUBLIC "-//W3C//DTD SVG 1.1//EN" "http://www.w3.org/Graphics/SVG/1.1/DTD/svg11.dtd">
<svg width="100%" height="100%" viewBox="0 0 991 294" version="1.1" xmlns="http://www.w3.org/2000/svg" xmlns:xlink="http://www.w3.org/1999/xlink" xml:space="preserve" xmlns:serif="http://www.serif.com/" style="fill-rule:evenodd;clip-rule:evenodd;stroke-linejoin:round;stroke-miterlimit:2;">
    <g transform="matrix(1,0,0,1,-709.465,-4002.48)">
        <g transform="matrix(0.604739,0,0,0.492346,109.08,3354.63)">
            <g transform="matrix(1.3186,0,0,1.61961,319.998,815.432)">
                <path d="M960.369,418.837C982.079,418.837 999.42,425.157 1012.39,437.799C1025.37,450.441 1031.85,467.285 1031.85,488.333C1031.85,509.38 1025.37,526.224 1012.39,538.866C999.42,551.508 982.079,557.829 960.369,557.829L903.383,557.829L903.383,418.837L960.369,418.837ZM960.369,529.434C972.018,529.434 981.417,525.728 988.565,518.315C995.713,510.902 999.287,500.908 999.287,488.333C999.287,475.889 995.713,465.928 988.565,458.449C981.417,450.97 972.018,447.231 960.369,447.231L935.947,447.231L935.947,529.434L960.369,529.434Z" style="fill:rgb(30,32,34);fill-rule:nonzero;"/>
                <path d="M1137.09,545.915C1127.29,555.313 1114.19,560.013 1097.77,560.013C1081.36,560.013 1068.29,555.313 1058.56,545.915C1048.83,536.516 1043.96,524.14 1043.96,508.784C1043.96,493.429 1048.83,481.052 1058.56,471.654C1068.29,462.255 1081.36,457.556 1097.77,457.556C1114.19,457.556 1127.29,462.255 1137.09,471.654C1146.88,481.052 1151.78,493.429 1151.78,508.784C1151.78,524.14 1146.88,536.516 1137.09,545.915ZM1097.77,533.604C1104.66,533.604 1110.22,531.288 1114.45,526.655C1118.69,522.022 1120.81,516.065 1120.81,508.784C1120.81,501.504 1118.69,495.547 1114.45,490.914C1110.22,486.281 1104.66,483.964 1097.77,483.964C1091.02,483.964 1085.53,486.281 1081.29,490.914C1077.06,495.547 1074.94,501.504 1074.94,508.784C1074.94,516.065 1077.06,522.022 1081.29,526.655C1085.53,531.288 1091.02,533.604 1097.77,533.604Z" style="fill:rgb(30,32,34);fill-rule:nonzero;"/>
                <rect x="1169.65" y="418.837" width="31.174" height="138.992" style="fill:rgb(30,32,34);fill-rule:nonzero;"/>
                <path d="M1285.81,457.754C1299.58,457.754 1310.86,462.487 1319.66,471.951C1328.47,481.416 1332.87,493.694 1332.87,508.784C1332.87,523.875 1328.47,536.152 1319.66,545.617C1310.86,555.082 1299.58,559.814 1285.81,559.814C1273.63,559.814 1263.5,555.975 1255.43,548.298L1255.43,600.32L1224.26,600.32L1224.26,459.74L1251.26,459.74L1253.25,471.256C1261.45,462.255 1272.31,457.754 1285.81,457.754ZM1261.68,526.655C1265.99,531.288 1271.58,533.604 1278.46,533.604C1285.35,533.604 1290.97,531.321 1295.34,526.754C1299.71,522.187 1301.89,516.197 1301.89,508.784C1301.89,501.371 1299.71,495.381 1295.34,490.815C1290.97,486.248 1285.35,483.964 1278.46,483.964C1271.58,483.964 1265.99,486.281 1261.68,490.914C1257.38,495.547 1255.23,501.504 1255.23,508.784C1255.23,516.065 1257.38,522.022 1261.68,526.655Z" style="fill:rgb(30,32,34);fill-rule:nonzero;"/>
                <path d="M1411.7,457.556C1423.74,457.556 1433.31,461.593 1440.39,469.668C1447.47,477.743 1451.01,488.664 1451.01,502.43L1451.01,557.829L1419.84,557.829L1419.84,504.217C1419.84,497.863 1418.28,492.899 1415.17,489.325C1412.06,485.751 1407.73,483.964 1402.16,483.964C1396.08,483.964 1391.14,486.016 1387.37,490.12C1383.6,494.223 1381.71,499.584 1381.71,506.203L1381.71,557.829L1350.54,557.829L1350.54,418.837L1381.71,418.837L1381.71,470.462C1389.26,461.858 1399.25,457.556 1411.7,457.556Z" style="fill:rgb(30,32,34);fill-rule:nonzero;"/>
                <path d="M1502.14,445.245C1498.77,448.422 1494.36,450.011 1488.94,450.011C1483.51,450.011 1479.11,448.422 1475.73,445.245C1472.36,442.068 1470.67,438.031 1470.67,433.133C1470.67,428.103 1472.39,423.999 1475.83,420.822C1479.27,417.645 1483.64,416.057 1488.94,416.057C1494.23,416.057 1498.6,417.645 1502.04,420.822C1505.48,423.999 1507.2,428.103 1507.2,433.133C1507.2,438.031 1505.52,442.068 1502.14,445.245ZM1473.25,557.829L1473.25,459.74L1504.42,459.74L1504.42,557.829L1473.25,557.829Z" style="fill:rgb(30,32,34);fill-rule:nonzero;"/>
                <path d="M1588.41,457.556C1600.59,457.556 1610.29,461.527 1617.5,469.469C1624.72,477.412 1628.33,488.399 1628.33,502.43L1628.33,557.829L1597.15,557.829L1597.15,504.217C1597.15,497.863 1595.56,492.899 1592.39,489.325C1589.21,485.751 1584.84,483.964 1579.28,483.964C1573.19,483.964 1568.29,486.016 1564.59,490.12C1560.88,494.223 1559.03,499.584 1559.03,506.203L1559.03,557.829L1527.85,557.829L1527.85,459.74L1554.86,459.74L1556.84,471.256C1564.52,462.123 1575.05,457.556 1588.41,457.556Z" style="fill:rgb(30,32,34);fill-rule:nonzero;"/>
                <path d="M1738.13,545.915C1728.33,555.313 1715.23,560.013 1698.81,560.013C1682.4,560.013 1669.33,555.313 1659.6,545.915C1649.87,536.516 1645,524.14 1645,508.784C1645,493.429 1649.87,481.052 1659.6,471.654C1669.33,462.255 1682.4,457.556 1698.81,457.556C1715.23,457.556 1728.33,462.255 1738.13,471.654C1747.92,481.052 1752.82,493.429 1752.82,508.784C1752.82,524.14 1747.92,536.516 1738.13,545.915ZM1698.81,533.604C1705.7,533.604 1711.26,531.288 1715.49,526.655C1719.73,522.022 1721.85,516.065 1721.85,508.784C1721.85,501.504 1719.73,495.547 1715.49,490.914C1711.26,486.281 1705.7,483.964 1698.81,483.964C1692.06,483.964 1686.57,486.281 1682.33,490.914C1678.1,495.547 1675.98,501.504 1675.98,508.784C1675.98,516.065 1678.1,522.022 1682.33,526.655C1686.57,531.288 1692.06,533.604 1698.81,533.604Z" style="fill:rgb(30,32,34);fill-rule:nonzero;"/>
            </g>
        </g>
        <g transform="matrix(0.604739,0,0,0.492346,109.08,3354.63)">
            <g transform="matrix(1,0,0,1,-437.222,-111.463)">
                <g transform="matrix(6.99311e-17,1.40277,-1.14206,8.5895e-17,1969.65,1234.61)">
                    <path d="M356.066,472.502L196.204,472.502C175.235,471.1 156.344,459.35 145.817,441.162C135.427,423.158 134.575,401.189 143.536,382.435L143.536,382.427L297.996,114.887C309.758,97.746 329.211,87.5 350,87.5L350.006,87.503C371.022,87.523 390.643,98.011 402.342,115.468L556.472,382.428C565.441,401.185 564.586,423.158 554.195,441.162C543.667,459.35 524.773,471.103 503.804,472.502L457.785,472.502C435.228,438.783 416.259,390.82 412.053,345.817C436.151,346.876 464.838,360.352 464.838,360.352C456.341,334.975 426.209,317.727 402.826,307.795L402.827,307.795C385.909,229.111 383.941,162.582 374.126,159.966C356.059,155.165 331.667,203.089 331.667,203.089C331.667,203.089 262.791,204.311 277.062,303.829C278.482,313.761 283.589,340.649 286.418,349.933C271.424,373.289 251.663,415.252 265.102,460.409C265.102,460.409 280.443,420.098 314.859,408.493C324.874,433.748 339.228,455.159 356.066,472.502Z" style="fill:rgb(31,90,220);"/>
                </g>
                <g transform="matrix(6.99311e-17,1.40277,-1.14206,8.5895e-17,1969.65,1234.61)">
                    <path d="M410.866,301.252C408.957,291.964 407.24,282.948 405.671,274.145C421.897,283.234 438.939,298.592 449.333,324.464C437.572,314.642 423.604,306.964 410.866,301.252Z" style="fill:rgb(31,90,220);"/>
                </g>
                <g transform="matrix(6.99311e-17,1.40277,-1.14206,8.5895e-17,1969.65,1234.61)">
                    <path d="M310.376,237.922C309.894,242.989 313.618,247.508 318.702,247.992C323.776,248.475 328.29,244.74 328.772,239.673C329.256,234.589 325.53,230.087 320.453,229.603C315.369,229.123 310.86,232.838 310.376,237.922Z" style="fill:rgb(31,90,220);"/>
                </g>
                <g transform="matrix(-1.01672,-0.118894,-0.0967973,1.24881,1937.83,1521.61)">
                    <path d="M282.475,258.597C272.338,255.488 262.483,252.62 252.85,249.941C261.248,268.967 276.538,289.565 304.237,303.878C294.55,289.745 287.483,273.382 282.475,258.597Z" style="fill:white;"/>
                </g>
            </g>
        </g>
    </g>
</svg>
