<?xml version="1.0" encoding="UTF-8" standalone="no"?>
<!DOCTYPE svg PUBLIC "-//W3C//DTD SVG 1.1//EN" "http://www.w3.org/Graphics/SVG/1.1/DTD/svg11.dtd">
<svg width="100%" height="100%" viewBox="0 0 945 294" version="1.1" xmlns="http://www.w3.org/2000/svg" xmlns:xlink="http://www.w3.org/1999/xlink" xml:space="preserve" xmlns:serif="http://www.serif.com/" style="fill-rule:evenodd;clip-rule:evenodd;stroke-linejoin:round;stroke-miterlimit:2;">
    <g transform="matrix(1,0,0,1,-7791.63,-4004.11)">
        <g transform="matrix(0.604739,0,0,0.492346,7228.51,3375.41)">
            <g transform="matrix(1.3186,0,0,1.61961,258.382,776.524)">
                <path d="M902.589,415.66L950.64,415.66C961.892,415.66 972.018,417.38 981.02,420.822C990.021,424.264 997.699,429.129 1004.05,435.416C1010.41,441.704 1015.27,449.216 1018.65,457.953C1022.02,466.69 1023.71,476.287 1023.71,486.744C1023.71,497.334 1022.02,506.997 1018.65,515.734C1015.27,524.47 1010.41,531.95 1004.05,538.171C997.699,544.393 990.021,549.224 981.02,552.666C972.018,556.108 961.892,557.829 950.64,557.829L902.589,557.829L902.589,415.66ZM949.449,532.413C957.259,532.413 964.142,531.321 970.099,529.137C976.056,526.952 981.02,523.875 984.991,519.904C988.962,515.932 991.94,511.134 993.926,505.508C995.912,499.882 996.904,493.628 996.904,486.744C996.904,479.861 995.912,473.606 993.926,467.98C991.94,462.354 988.962,457.556 984.991,453.585C981.02,449.613 976.056,446.536 970.099,444.352C964.142,442.167 957.259,441.075 949.449,441.075L929.394,441.075L929.394,532.413L949.449,532.413Z" style="fill:rgb(38,50,56);fill-rule:nonzero;"/>
                <path d="M1085.26,457.357C1092.81,457.357 1099.73,458.648 1106.01,461.229C1112.3,463.81 1117.73,467.385 1122.3,471.951C1126.86,476.518 1130.44,481.979 1133.02,488.333C1135.6,494.686 1136.89,501.636 1136.89,509.181C1136.89,516.727 1135.6,523.676 1133.02,530.03C1130.44,536.384 1126.86,541.844 1122.3,546.411C1117.73,550.978 1112.3,554.552 1106.01,557.134C1099.73,559.715 1092.81,561.006 1085.26,561.006C1077.72,561.006 1070.8,559.715 1064.51,557.134C1058.23,554.552 1052.8,550.978 1048.23,546.411C1043.66,541.844 1040.09,536.384 1037.51,530.03C1034.93,523.676 1033.64,516.727 1033.64,509.181C1033.64,501.636 1034.93,494.686 1037.51,488.333C1040.09,481.979 1043.66,476.518 1048.23,471.951C1052.8,467.385 1058.23,463.81 1064.51,461.229C1070.8,458.648 1077.72,457.357 1085.26,457.357ZM1085.26,536.98C1088.57,536.98 1091.78,536.351 1094.89,535.093C1098.01,533.836 1100.75,532.016 1103.13,529.633C1105.52,527.25 1107.4,524.338 1108.79,520.896C1110.18,517.455 1110.88,513.55 1110.88,509.181C1110.88,504.813 1110.18,500.908 1108.79,497.466C1107.4,494.025 1105.52,491.112 1103.13,488.73C1100.75,486.347 1098.01,484.527 1094.89,483.269C1091.78,482.012 1088.57,481.383 1085.26,481.383C1081.82,481.383 1078.58,482.012 1075.53,483.269C1072.49,484.527 1069.78,486.347 1067.39,488.73C1065.01,491.112 1063.12,494.025 1061.73,497.466C1060.34,500.908 1059.65,504.813 1059.65,509.181C1059.65,513.55 1060.34,517.455 1061.73,520.896C1063.12,524.338 1065.01,527.25 1067.39,529.633C1069.78,532.016 1072.49,533.836 1075.53,535.093C1078.58,536.351 1081.82,536.98 1085.26,536.98Z" style="fill:rgb(38,50,56);fill-rule:nonzero;"/>
                <rect x="1152.58" y="415.66" width="26.011" height="142.169" style="fill:rgb(38,50,56);fill-rule:nonzero;"/>
                <path d="M1200.03,460.534L1224.45,460.534L1224.45,472.249L1226.04,472.249C1228.42,468.146 1232.13,464.638 1237.16,461.726C1242.19,458.813 1248.41,457.357 1255.83,457.357C1262.05,457.357 1267.97,458.648 1273.6,461.229C1279.22,463.81 1284.19,467.385 1288.49,471.951C1292.79,476.518 1296.2,481.979 1298.72,488.333C1301.23,494.686 1302.49,501.636 1302.49,509.181C1302.49,516.727 1301.23,523.676 1298.72,530.03C1296.2,536.384 1292.79,541.844 1288.49,546.411C1284.19,550.978 1279.22,554.552 1273.6,557.134C1267.97,559.715 1262.05,561.006 1255.83,561.006C1248.41,561.006 1242.19,559.549 1237.16,556.637C1232.13,553.725 1228.42,550.217 1226.04,546.114L1224.45,546.114L1226.04,560.013L1226.04,600.717L1200.03,600.717L1200.03,460.534ZM1250.47,536.98C1253.91,536.98 1257.18,536.318 1260.29,534.994C1263.4,533.67 1266.15,531.817 1268.53,529.434C1270.92,527.052 1272.84,524.14 1274.29,520.698C1275.75,517.256 1276.48,513.417 1276.48,509.181C1276.48,504.945 1275.75,501.107 1274.29,497.665C1272.84,494.223 1270.92,491.311 1268.53,488.928C1266.15,486.546 1263.4,484.692 1260.29,483.369C1257.18,482.045 1253.91,481.383 1250.47,481.383C1247.02,481.383 1243.75,482.012 1240.64,483.269C1237.53,484.527 1234.78,486.347 1232.4,488.73C1230.01,491.112 1228.09,494.025 1226.64,497.466C1225.18,500.908 1224.45,504.813 1224.45,509.181C1224.45,513.55 1225.18,517.455 1226.64,520.896C1228.09,524.338 1230.01,527.25 1232.4,529.633C1234.78,532.016 1237.53,533.836 1240.64,535.093C1243.75,536.351 1247.02,536.98 1250.47,536.98Z" style="fill:rgb(38,50,56);fill-rule:nonzero;"/>
                <path d="M1317.18,415.66L1343.19,415.66L1343.19,455.57L1341.61,473.242L1343.19,473.242C1345.97,468.609 1349.98,464.803 1355.21,461.825C1360.43,458.846 1366.29,457.357 1372.78,457.357C1385.35,457.357 1394.65,461.064 1400.68,468.477C1406.7,475.889 1409.71,486.016 1409.71,498.856L1409.71,557.829L1383.7,557.829L1383.7,502.033C1383.7,495.282 1382.11,490.153 1378.93,486.645C1375.76,483.137 1371.32,481.383 1365.63,481.383C1362.06,481.383 1358.88,482.144 1356.1,483.666C1353.32,485.189 1350.97,487.274 1349.05,489.921C1347.13,492.569 1345.67,495.646 1344.68,499.154C1343.69,502.662 1343.19,506.402 1343.19,510.373L1343.19,557.829L1317.18,557.829L1317.18,415.66Z" style="fill:rgb(38,50,56);fill-rule:nonzero;"/>
                <path d="M1445.65,447.429C1443.4,447.429 1441.25,446.999 1439.2,446.139C1437.14,445.278 1435.36,444.087 1433.84,442.565C1432.31,441.042 1431.12,439.288 1430.26,437.303C1429.4,435.317 1428.97,433.133 1428.97,430.75C1428.97,428.367 1429.4,426.183 1430.26,424.198C1431.12,422.212 1432.31,420.458 1433.84,418.936C1435.36,417.414 1437.14,416.222 1439.2,415.362C1441.25,414.501 1443.4,414.071 1445.65,414.071C1450.28,414.071 1454.25,415.693 1457.56,418.936C1460.87,422.179 1462.53,426.117 1462.53,430.75C1462.53,435.383 1460.87,439.321 1457.56,442.565C1454.25,445.808 1450.28,447.429 1445.65,447.429ZM1432.74,557.829L1432.74,460.534L1458.76,460.534L1458.76,557.829L1432.74,557.829Z" style="fill:rgb(38,50,56);fill-rule:nonzero;"/>
                <path d="M1507.01,473.242L1508.59,473.242C1511.64,468.344 1515.74,464.472 1520.9,461.626C1526.07,458.78 1531.96,457.357 1538.58,457.357C1544.66,457.357 1550.03,458.35 1554.66,460.336C1559.29,462.321 1563.1,465.134 1566.08,468.774C1569.06,472.415 1571.31,476.783 1572.83,481.879C1574.35,486.976 1575.11,492.635 1575.11,498.856L1575.11,557.829L1549.1,557.829L1549.1,502.033C1549.1,495.017 1547.54,489.822 1544.43,486.446C1541.32,483.071 1536.79,481.383 1530.83,481.383C1527.26,481.383 1524.11,482.144 1521.4,483.666C1518.69,485.189 1516.37,487.24 1514.45,489.822C1512.53,492.403 1511.08,495.448 1510.08,498.956C1509.09,502.463 1508.59,506.203 1508.59,510.174L1508.59,557.829L1482.58,557.829L1482.58,460.534L1507.01,460.534L1507.01,473.242Z" style="fill:rgb(38,50,56);fill-rule:nonzero;"/>
                <path d="M1642.62,457.357C1650.17,457.357 1657.08,458.648 1663.37,461.229C1669.66,463.81 1675.09,467.385 1679.65,471.951C1684.22,476.518 1687.79,481.979 1690.38,488.333C1692.96,494.686 1694.25,501.636 1694.25,509.181C1694.25,516.727 1692.96,523.676 1690.38,530.03C1687.79,536.384 1684.22,541.844 1679.65,546.411C1675.09,550.978 1669.66,554.552 1663.37,557.134C1657.08,559.715 1650.17,561.006 1642.62,561.006C1635.08,561.006 1628.16,559.715 1621.87,557.134C1615.58,554.552 1610.16,550.978 1605.59,546.411C1601.02,541.844 1597.45,536.384 1594.87,530.03C1592.29,523.676 1591,516.727 1591,509.181C1591,501.636 1592.29,494.686 1594.87,488.333C1597.45,481.979 1601.02,476.518 1605.59,471.951C1610.16,467.385 1615.58,463.81 1621.87,461.229C1628.16,458.648 1635.08,457.357 1642.62,457.357ZM1642.62,536.98C1645.93,536.98 1649.14,536.351 1652.25,535.093C1655.36,533.836 1658.11,532.016 1660.49,529.633C1662.87,527.25 1664.76,524.338 1666.15,520.896C1667.54,517.455 1668.24,513.55 1668.24,509.181C1668.24,504.813 1667.54,500.908 1666.15,497.466C1664.76,494.025 1662.87,491.112 1660.49,488.73C1658.11,486.347 1655.36,484.527 1652.25,483.269C1649.14,482.012 1645.93,481.383 1642.62,481.383C1639.18,481.383 1635.94,482.012 1632.89,483.269C1629.85,484.527 1627.13,486.347 1624.75,488.73C1622.37,491.112 1620.48,494.025 1619.09,497.466C1617.7,500.908 1617.01,504.813 1617.01,509.181C1617.01,513.55 1617.7,517.455 1619.09,520.896C1620.48,524.338 1622.37,527.25 1624.75,529.633C1627.13,532.016 1629.85,533.836 1632.89,535.093C1635.94,536.351 1639.18,536.98 1642.62,536.98Z" style="fill:rgb(38,50,56);fill-rule:nonzero;"/>
            </g>
        </g>
        <g transform="matrix(0.604739,0,0,0.492346,7228.51,3375.41)">
            <g transform="matrix(1,0,0,1,-498.838,-150.371)">
                <g transform="matrix(6.99311e-17,1.40277,-1.14206,8.5895e-17,1969.65,1234.61)">
                    <path d="M356.066,472.502L196.204,472.502C175.235,471.1 156.344,459.35 145.817,441.162C135.427,423.158 134.575,401.189 143.536,382.435L143.536,382.427L297.996,114.887C309.758,97.746 329.211,87.5 350,87.5L350.006,87.503C371.022,87.523 390.643,98.011 402.342,115.468L556.472,382.428C565.441,401.185 564.586,423.158 554.195,441.162C543.667,459.35 524.773,471.103 503.804,472.502L457.785,472.502C435.228,438.783 416.259,390.82 412.053,345.817C436.151,346.876 464.838,360.352 464.838,360.352C456.341,334.975 426.209,317.727 402.826,307.795L402.827,307.795C385.909,229.111 383.941,162.582 374.126,159.966C356.059,155.165 331.667,203.089 331.667,203.089C331.667,203.089 262.791,204.311 277.062,303.829C278.482,313.761 283.589,340.649 286.418,349.933C271.424,373.289 251.663,415.252 265.102,460.409C265.102,460.409 280.443,420.098 314.859,408.493C324.874,433.748 339.228,455.159 356.066,472.502Z" style="fill:rgb(31,90,220);"/>
                </g>
                <g transform="matrix(6.99311e-17,1.40277,-1.14206,8.5895e-17,1969.65,1234.61)">
                    <path d="M410.866,301.252C408.957,291.964 407.24,282.948 405.671,274.145C421.897,283.234 438.939,298.592 449.333,324.464C437.572,314.642 423.604,306.964 410.866,301.252Z" style="fill:rgb(31,90,220);"/>
                </g>
                <g transform="matrix(6.99311e-17,1.40277,-1.14206,8.5895e-17,1969.65,1234.61)">
                    <path d="M310.376,237.922C309.894,242.989 313.618,247.508 318.702,247.992C323.776,248.475 328.29,244.74 328.772,239.673C329.256,234.589 325.53,230.087 320.453,229.603C315.369,229.123 310.86,232.838 310.376,237.922Z" style="fill:rgb(31,90,220);"/>
                </g>
                <g transform="matrix(-1.01672,-0.118894,-0.0967973,1.24881,1937.83,1521.61)">
                    <path d="M282.475,258.597C272.338,255.488 262.483,252.62 252.85,249.941C261.248,268.967 276.538,289.565 304.237,303.878C294.55,289.745 287.483,273.382 282.475,258.597Z" style="fill:white;"/>
                </g>
            </g>
        </g>
    </g>
</svg>
