<?xml version="1.0" encoding="UTF-8" standalone="no"?>
<!DOCTYPE svg PUBLIC "-//W3C//DTD SVG 1.1//EN" "http://www.w3.org/Graphics/SVG/1.1/DTD/svg11.dtd">
<svg width="100%" height="100%" viewBox="0 0 1404 294" version="1.1" xmlns="http://www.w3.org/2000/svg" xmlns:xlink="http://www.w3.org/1999/xlink" xml:space="preserve" xmlns:serif="http://www.serif.com/" style="fill-rule:evenodd;clip-rule:evenodd;stroke-linejoin:round;stroke-miterlimit:2;">
    <g transform="matrix(1,0,0,1,-5130.12,-463.731)">
        <g id="dolphinstream-logo" transform="matrix(0.604739,0,0,0.492346,4845.39,0)">
            <rect x="0" y="0" width="3507.87" height="2480.32" style="fill:white;"/>
            <g transform="matrix(6.99311e-17,1.40277,-1.14206,8.5895e-17,1969.65,749.178)">
                <path d="M350,87.5C329.211,87.5 309.758,97.746 297.996,114.887L143.536,382.427L143.536,382.435C134.575,401.189 135.427,423.158 145.817,441.162C156.344,459.35 175.235,471.1 196.204,472.502L503.804,472.502C524.773,471.103 543.667,459.35 554.195,441.162C564.586,423.158 565.441,401.185 556.473,382.428L402.342,115.468C390.643,98.011 371.023,87.523 350.006,87.503L350,87.5Z" style="fill:rgb(31,90,220);fill-rule:nonzero;"/>
            </g>
            <g transform="matrix(-1.01672,-0.118894,-0.0967973,1.24881,1937.83,1036.18)">
                <path d="M290.61,250.34C299.188,277.422 315.196,312.793 342.544,324.942C342.544,324.942 330.583,291.579 331.958,264.641C424.144,282.189 522.295,357.471 511.901,398.646C550.31,335.867 516.519,216.488 412.03,163.088C428.596,126.006 475.096,113.201 475.096,113.201C426.252,93.455 377.444,111.006 349.856,125.221C339.821,121.088 310.43,112.553 299.524,109.92C190.254,83.486 181.594,160.029 181.594,160.029C181.594,160.029 125.66,182.103 129.09,202.724C130.961,213.927 204.813,223.169 290.61,250.341L290.61,250.34ZM252.85,249.941L252.85,249.94L252.85,249.941L252.85,249.941C261.248,268.967 276.538,289.565 304.237,303.878C294.549,289.745 287.483,273.382 282.475,258.597C272.338,255.488 262.483,252.62 252.85,249.941ZM222.626,140.02C228.317,140.02 232.954,144.645 232.954,150.356C232.954,156.055 228.317,160.684 222.626,160.684C216.915,160.684 212.298,156.059 212.298,150.356C212.302,144.645 216.915,140.02 222.626,140.02Z" style="fill:white;fill-rule:nonzero;"/>
            </g>
            <g transform="matrix(1.3186,0,0,1.61961,-718.839,424.436)">
                <text x="888.292px" y="557.829px" style="font-family:'Nexa-Heavy', 'Nexa';font-weight:900;font-size:183.333px;fill:rgb(24,25,82);">D<tspan x="1026.34px " y="557.829px ">o</tspan>lphin</text>
            </g>
            <g transform="matrix(1.3186,0,0,1.61961,748.952,424.436)">
                <text x="888.292px" y="557.829px" style="font-family:'Nexa-Heavy', 'Nexa';font-weight:900;font-size:183.333px;fill:rgb(24,25,82);">S<tspan x="1006.73px 1084.46px 1166.59px " y="557.829px 557.829px 557.829px ">tre</tspan>am</text>
            </g>
        </g>
    </g>
</svg>
